<?xml version="1.0" encoding="utf-8"?>
<!-- Generator: Adobe Illustrator 16.0.0, SVG Export Plug-In . SVG Version: 6.00 Build 0)  -->
<!DOCTYPE svg PUBLIC "-//W3C//DTD SVG 1.1//EN" "http://www.w3.org/Graphics/SVG/1.1/DTD/svg11.dtd">
<svg version="1.1" id="Capa_1" xmlns="http://www.w3.org/2000/svg" xmlns:xlink="http://www.w3.org/1999/xlink" x="0px" y="0px"
	 width="168.744px" height="90.479px" viewBox="0 0 168.744 90.479" enable-background="new 0 0 168.744 90.479"
	 xml:space="preserve">
<g>
	<g>
		<path fill="#FFFFFF" d="M92.352,76.496l6.076-17.217h6.792l6.018,17.217h-6.572l-0.561-2.195h-4.655l-0.552,2.195H92.352z
			 M100.483,70.233h2.597l-1.28-5.042L100.483,70.233z"/>
		<path fill="#FFFFFF" d="M111.741,76.496V59.279h6.631c1.493,0,2.664,0.094,3.51,0.282c0.84,0.187,1.588,0.532,2.241,1.028
			c0.652,0.498,1.189,1.129,1.601,1.886c0.41,0.762,0.615,1.651,0.615,2.669c0,0.667-0.092,1.277-0.281,1.834
			c-0.189,0.555-0.426,1.011-0.718,1.369c-0.29,0.356-0.595,0.633-0.916,0.829c-0.323,0.194-0.722,0.362-1.197,0.492l4.533,6.827
			h-7.134l-2.806-5.733v5.733H111.741z M117.783,66.967h0.412c0.727,0,1.211-0.072,1.446-0.212c0.453-0.283,0.679-0.712,0.679-1.293
			c0-0.479-0.145-0.839-0.434-1.081c-0.288-0.244-0.843-0.363-1.656-0.363h-0.447V66.967z"/>
		<path fill="#FFFFFF" d="M128.419,59.279h6.185v17.217h-6.185V59.279z"/>
		<path fill="#FFFFFF" d="M149.531,59.729l0.08,6.521c-1.114-1.158-2.286-1.737-3.514-1.737c-0.987,0-1.812,0.32-2.464,0.967
			c-0.656,0.647-0.982,1.449-0.982,2.403c0,0.935,0.319,1.72,0.96,2.352c0.638,0.635,1.451,0.951,2.438,0.951
			c0.655,0,1.312-0.144,1.963-0.435c0.646-0.288,1.203-0.649,1.656-1.081l-0.167,6.405c-1.484,0.51-2.94,0.766-4.36,0.766
			c-1.525,0-2.885-0.3-4.075-0.896c-0.975-0.493-1.798-1.134-2.48-1.927c-0.688-0.798-1.219-1.623-1.586-2.48
			c-0.479-1.126-0.716-2.297-0.716-3.514c0-1.582,0.396-3.09,1.19-4.525c0.794-1.434,1.871-2.549,3.221-3.348
			c1.354-0.797,2.916-1.201,4.687-1.201c0.646,0,1.265,0.053,1.842,0.155C147.812,59.205,148.578,59.413,149.531,59.729z"/>
		<path fill="#FFFFFF" d="M149.856,76.496l6.079-17.217h6.794l6.015,17.217h-6.571l-0.562-2.195h-4.655l-0.551,2.195H149.856z
			 M157.994,70.233h2.595l-1.279-5.042L157.994,70.233z"/>
	</g>
	<g>
		<path fill="#FFFFFF" d="M0,76.381V59.525h7.154c1.39,0,2.433,0.107,3.133,0.319c0.705,0.209,1.286,0.481,1.751,0.81
			c0.463,0.33,0.878,0.711,1.235,1.15c0.363,0.437,0.657,0.966,0.887,1.586c0.229,0.631,0.345,1.374,0.345,2.233
			c0,1.104-0.205,2.067-0.611,2.893c-0.406,0.824-0.911,1.463-1.516,1.916c-0.329,0.244-0.78,0.447-1.347,0.61
			c-0.76,0.212-1.74,0.32-2.944,0.32H5.946v5.018H0z M5.946,67.051h0.643c0.724,0,1.196-0.071,1.427-0.208
			c0.447-0.275,0.671-0.697,0.671-1.266c0-0.468-0.143-0.819-0.43-1.058c-0.281-0.237-0.822-0.358-1.62-0.358h-0.69V67.051z"/>
		<path fill="#FFFFFF" d="M15.586,59.525h5.993v9.617c0,0.568,0.036,0.977,0.104,1.221c0.1,0.339,0.281,0.607,0.549,0.804
			c0.261,0.203,0.612,0.302,1.051,0.302c0.543,0,0.96-0.17,1.247-0.508c0.287-0.336,0.432-0.955,0.432-1.851v-9.585h6.029v10.067
			c0,1.44-0.213,2.614-0.634,3.521c-0.537,1.15-1.403,2.045-2.6,2.687c-1.197,0.639-2.681,0.96-4.452,0.96
			c-1.257,0-2.412-0.174-3.463-0.52c-0.645-0.205-1.229-0.484-1.753-0.839c-0.527-0.353-0.954-0.737-1.277-1.157
			c-0.327-0.416-0.611-0.971-0.858-1.663c-0.244-0.688-0.368-1.45-0.368-2.288V59.525z"/>
		<path fill="#FFFFFF" d="M32.717,76.381V59.525h11.121v4.556h-5.116v1.636h4.684v4.335h-4.684v1.749h5.313v4.58H32.717z"/>
		<path fill="#FFFFFF" d="M45.426,76.381V59.525h6.489c1.463,0,2.608,0.092,3.434,0.278c0.824,0.183,1.555,0.519,2.197,1.006
			c0.639,0.488,1.161,1.102,1.567,1.848c0.399,0.742,0.602,1.612,0.602,2.611c0,0.65-0.093,1.249-0.276,1.793
			c-0.184,0.543-0.418,0.99-0.701,1.341c-0.286,0.349-0.582,0.619-0.897,0.811c-0.314,0.192-0.706,0.354-1.174,0.481l4.44,6.687
			h-6.982l-2.748-5.615v5.615H45.426z M51.341,67.051h0.401c0.715,0,1.185-0.071,1.415-0.208c0.445-0.275,0.668-0.697,0.668-1.266
			c0-0.468-0.144-0.819-0.426-1.058c-0.284-0.237-0.826-0.358-1.623-0.358h-0.436V67.051z"/>
		<path fill="#FFFFFF" d="M69.908,76.381h-6.051V65.015h-3.361v-5.489h12.758v5.489h-3.346V76.381z"/>
		<path fill="#FFFFFF" d="M73.565,68.039c0-1.043,0.206-2.137,0.615-3.278s1.039-2.152,1.887-3.024
			c0.848-0.875,1.846-1.525,3.001-1.95c1.154-0.425,2.428-0.641,3.814-0.641c2.739,0,4.949,0.832,6.641,2.492
			c1.686,1.662,2.528,3.788,2.528,6.379c0,2.577-0.85,4.694-2.553,6.345c-1.702,1.651-3.94,2.479-6.709,2.479
			c-1.67,0-3.157-0.319-4.462-0.953c-0.966-0.471-1.794-1.07-2.487-1.806c-0.688-0.739-1.201-1.516-1.539-2.337
			C73.812,70.569,73.565,69.336,73.565,68.039z M79.767,68.117c0,0.932,0.285,1.686,0.857,2.264
			c0.571,0.578,1.288,0.871,2.156,0.871c0.88,0,1.614-0.301,2.198-0.896c0.58-0.593,0.874-1.358,0.874-2.295
			c0-1.003-0.294-1.813-0.874-2.432c-0.584-0.618-1.305-0.927-2.163-0.927c-0.859,0-1.584,0.312-2.169,0.934
			C80.059,66.257,79.767,67.085,79.767,68.117z"/>
	</g>
	<path fill="#F28B2F" d="M127.836,51.34c-0.792,2.135,0.274,4.505,2.382,5.291c2.108,0.783,4.456-0.316,5.248-2.452
		c0.789-2.138-0.279-4.509-2.387-5.294C130.976,48.103,128.626,49.199,127.836,51.34z"/>
	<path fill="#13A8E2" d="M89.416,22.944c5.702,0.017,10.763,1.137,15.203,2.921c13.92,5.59,21.806,17.702,24.655,22.882
		c-0.193,0.117-0.375,0.249-0.547,0.392c-7.197-7.984-13.98-12.33-20.201-14.229c-4.039-1.233-7.837-1.435-11.356-0.932
		c-16.312,2.339-26.577,19.818-26.577,19.818c-2.471-16.326-18.717-17.519-18.717-17.519C66.639,26.492,79.088,22.912,89.416,22.944
		z"/>
	<path fill="#FFFFFF" d="M104.825,23.649c3.467-4.553-1.614-11.826-1.614-11.826c25.562,6.61,28.116,28.495,28.196,36.249
		c-0.271,0.018-0.534,0.057-0.795,0.119C123.74,24.995,104.825,23.649,104.825,23.649z"/>
	<path fill="#157B37" d="M127.338,51.062c0,0-29.237-9.678-25.848-46.697c0,0-10.173,5.417-20.347-4.365
		c0,0,5.051,41.916,46.008,51.654L127.338,51.062z"/>
	<g>
		<path fill="#FFFFFF" d="M5.619,81.773H1.756v2.824h3.759v0.99H1.756v3.725h3.863v0.991H0.688v-9.52h4.931V81.773z"/>
		<path fill="#FFFFFF" d="M7.245,90.304L8.819,80.24l3.655,8.048l3.738-8.048l1.478,10.063h-1.088l-0.893-6.625l-3.244,7.022
			l-3.2-7.022l-0.934,6.625H7.245z"/>
		<path fill="#FFFFFF" d="M20.963,86.133v4.171h-1.069v-9.52h1.73c0.58,0,1.057,0.051,1.426,0.153
			c0.37,0.101,0.693,0.274,0.973,0.517c0.275,0.237,0.49,0.532,0.646,0.885c0.155,0.354,0.233,0.728,0.233,1.122
			c0,0.374-0.071,0.731-0.21,1.078c-0.14,0.347-0.33,0.635-0.571,0.86c-0.517,0.489-1.26,0.733-2.232,0.733H20.963z M20.963,85.164
			h0.864c0.669,0,1.177-0.155,1.52-0.467c0.339-0.312,0.508-0.727,0.508-1.25c0-0.539-0.173-0.955-0.521-1.248
			c-0.34-0.283-0.868-0.426-1.584-0.426h-0.787V85.164z"/>
		<path fill="#FFFFFF" d="M28.911,86.041l3.026,4.263h-1.296l-2.874-4.178h-0.272v4.178h-1.066v-9.52h1.541
			c0.544,0,0.991,0.038,1.343,0.118c0.351,0.08,0.664,0.212,0.938,0.396c0.345,0.233,0.608,0.546,0.789,0.937
			c0.176,0.382,0.265,0.786,0.265,1.219c0,0.722-0.219,1.316-0.652,1.787C30.218,85.71,29.637,85.978,28.911,86.041z M27.495,85.192
			h0.664c0.645,0,1.138-0.128,1.478-0.384c0.414-0.316,0.62-0.769,0.62-1.354c0-0.622-0.23-1.08-0.688-1.374
			c-0.332-0.204-0.81-0.307-1.437-0.307h-0.637V85.192z"/>
		<path fill="#FFFFFF" d="M38.536,81.773h-3.864v2.824h3.759v0.99h-3.759v3.725h3.864v0.991h-4.931v-9.52h4.931V81.773z"/>
		<path fill="#FFFFFF" d="M45.573,82.108l-0.838,0.551c-0.186-0.291-0.351-0.501-0.494-0.627c-0.303-0.273-0.683-0.411-1.137-0.411
			c-0.489,0-0.879,0.158-1.173,0.474c-0.269,0.289-0.404,0.622-0.404,0.996c0,0.415,0.197,0.756,0.594,1.026
			c0.175,0.116,0.334,0.209,0.471,0.276c0.136,0.066,0.53,0.241,1.181,0.525c0.777,0.347,1.32,0.71,1.633,1.096
			c0.348,0.429,0.522,0.938,0.522,1.534c0,0.882-0.332,1.615-0.998,2.197c-0.561,0.487-1.238,0.732-2.027,0.732
			c-0.756,0-1.387-0.217-1.898-0.646c-0.511-0.43-0.857-1.035-1.039-1.816l1.032-0.286c0.093,0.428,0.221,0.756,0.384,0.984
			c0.373,0.511,0.893,0.767,1.562,0.767c0.549,0,1.009-0.193,1.382-0.578c0.354-0.364,0.528-0.796,0.528-1.298
			c0-0.571-0.261-1.024-0.787-1.353c-0.243-0.155-0.806-0.428-1.688-0.824c-0.7-0.32-1.194-0.66-1.479-1.019
			c-0.297-0.375-0.445-0.819-0.445-1.33c0-0.806,0.315-1.438,0.949-1.904c0.5-0.368,1.072-0.552,1.715-0.552
			C44.188,80.623,45.005,81.119,45.573,82.108z"/>
		<path fill="#FFFFFF" d="M52.972,87.611h-4.066l-1.15,2.692h-1.157l4.387-9.974l4.273,9.974h-1.163L52.972,87.611z M52.552,86.622
			l-1.59-3.816l-1.623,3.816H52.552z"/>
		<path fill="#FFFFFF" d="M61.222,86.133v4.171h-1.066v-9.52h1.729c0.581,0,1.056,0.051,1.427,0.153
			c0.369,0.101,0.693,0.274,0.974,0.517c0.273,0.237,0.488,0.532,0.645,0.885c0.156,0.354,0.233,0.728,0.233,1.122
			c0,0.374-0.07,0.731-0.209,1.078c-0.141,0.347-0.331,0.635-0.572,0.86c-0.517,0.489-1.261,0.733-2.231,0.733H61.222z
			 M61.222,85.164h0.864c0.67,0,1.177-0.155,1.521-0.467c0.339-0.312,0.509-0.727,0.509-1.25c0-0.539-0.174-0.955-0.524-1.248
			c-0.339-0.283-0.866-0.426-1.582-0.426h-0.788V85.164z"/>
		<path fill="#FFFFFF" d="M71.133,80.623c0.878,0,1.689,0.219,2.433,0.656c0.781,0.451,1.396,1.055,1.842,1.812
			c0.446,0.765,0.67,1.584,0.67,2.464c0,0.879-0.227,1.701-0.679,2.47c-0.432,0.732-1.018,1.317-1.757,1.756
			c-0.786,0.466-1.641,0.698-2.564,0.698c-0.839,0-1.645-0.22-2.421-0.657c-0.818-0.47-1.446-1.1-1.882-1.889
			c-0.406-0.73-0.607-1.543-0.607-2.44c0-1.353,0.522-2.521,1.568-3.509C68.67,81.101,69.8,80.646,71.133,80.623z M71.124,81.621
			c-1.181,0-2.159,0.453-2.936,1.361c-0.634,0.732-0.949,1.572-0.949,2.515c0,1.173,0.405,2.141,1.214,2.902
			c0.419,0.391,0.896,0.682,1.431,0.872c0.404,0.139,0.807,0.209,1.205,0.209c0.721,0,1.394-0.187,2.016-0.564
			c0.614-0.364,1.086-0.848,1.416-1.457c0.322-0.586,0.482-1.222,0.482-1.904c0-1.118-0.396-2.062-1.188-2.838
			C73.091,82.004,72.194,81.642,71.124,81.621z"/>
		<path fill="#FFFFFF" d="M80.511,86.041l3.027,4.263h-1.297l-2.873-4.178h-0.273v4.178h-1.067v-9.52h1.543
			c0.543,0,0.991,0.038,1.343,0.118c0.35,0.08,0.663,0.212,0.937,0.396c0.345,0.233,0.607,0.546,0.789,0.937
			c0.176,0.382,0.267,0.786,0.267,1.219c0,0.722-0.219,1.316-0.653,1.787C81.816,85.71,81.237,85.978,80.511,86.041z M79.095,85.192
			h0.663c0.647,0,1.139-0.128,1.479-0.384c0.412-0.316,0.621-0.769,0.621-1.354c0-0.622-0.23-1.08-0.691-1.374
			c-0.331-0.204-0.81-0.307-1.438-0.307h-0.635V85.192z"/>
		<path fill="#FFFFFF" d="M87.354,81.773v8.53h-1.067v-8.53h-2.303v-0.989h5.682v0.989H87.354z"/>
		<path fill="#FFFFFF" d="M92.165,80.784v5.83c0,0.497,0.022,0.876,0.068,1.137c0.048,0.259,0.133,0.491,0.251,0.696
			c0.172,0.289,0.44,0.531,0.802,0.727c0.379,0.205,0.779,0.307,1.201,0.307c0.586,0,1.109-0.182,1.569-0.545
			c0.296-0.236,0.495-0.515,0.602-0.832c0.106-0.318,0.157-0.815,0.157-1.489v-5.83h1.066v6.122c0,0.518-0.048,0.947-0.139,1.295
			c-0.1,0.346-0.259,0.666-0.48,0.959c-0.326,0.423-0.747,0.753-1.263,0.99c-0.479,0.217-0.982,0.328-1.513,0.328
			c-0.757,0-1.449-0.217-2.07-0.65c-0.471-0.328-0.809-0.722-1.014-1.178c-0.201-0.455-0.305-1.037-0.305-1.744v-6.122H92.165z"/>
		<path fill="#FFFFFF" d="M105.233,87.611h-4.064l-1.152,2.692H98.86l4.388-9.974l4.273,9.974h-1.163L105.233,87.611z
			 M104.815,86.622l-1.592-3.816l-1.623,3.816H104.815z"/>
		<path fill="#FFFFFF" d="M111.328,86.041l3.026,4.263h-1.298l-2.872-4.178h-0.272v4.178h-1.066v-9.52h1.542
			c0.543,0,0.992,0.038,1.344,0.118c0.349,0.08,0.66,0.212,0.938,0.396c0.343,0.233,0.605,0.546,0.784,0.937
			c0.181,0.382,0.269,0.786,0.269,1.219c0,0.722-0.219,1.316-0.654,1.787C112.634,85.71,112.055,85.978,111.328,86.041z
			 M109.912,85.192h0.662c0.647,0,1.141-0.128,1.48-0.384c0.414-0.316,0.62-0.769,0.62-1.354c0-0.622-0.231-1.08-0.689-1.374
			c-0.334-0.204-0.812-0.307-1.438-0.307h-0.636V85.192z"/>
		<path fill="#FFFFFF" d="M117.088,80.784v9.52h-1.063v-9.52H117.088z"/>
		<path fill="#FFFFFF" d="M124.802,87.611h-4.066l-1.15,2.692h-1.157l4.388-9.974l4.274,9.974h-1.164L124.802,87.611z
			 M124.385,86.622l-1.59-3.816l-1.627,3.816H124.385z"/>
		<path fill="#FFFFFF" d="M137.221,87.611h-4.063l-1.15,2.692h-1.159l4.387-9.974l4.275,9.974h-1.164L137.221,87.611z
			 M136.804,86.622l-1.59-3.816l-1.624,3.816H136.804z"/>
		<path fill="#FFFFFF" d="M143.315,86.041l3.028,4.263h-1.299l-2.872-4.178H141.9v4.178h-1.065v-9.52h1.541
			c0.545,0,0.991,0.038,1.342,0.118c0.352,0.08,0.662,0.212,0.938,0.396c0.345,0.233,0.605,0.546,0.788,0.937
			c0.178,0.382,0.265,0.786,0.265,1.219c0,0.722-0.215,1.316-0.652,1.787C144.623,85.71,144.043,85.978,143.315,86.041z
			 M141.9,85.192h0.665c0.645,0,1.137-0.128,1.478-0.384c0.413-0.316,0.62-0.769,0.62-1.354c0-0.622-0.228-1.08-0.691-1.374
			c-0.329-0.204-0.808-0.307-1.437-0.307H141.9V85.192z"/>
		<path fill="#FFFFFF" d="M149.076,80.784v9.52h-1.063v-9.52H149.076z"/>
		<path fill="#FFFFFF" d="M158.827,81.565v1.316c-0.402-0.384-0.781-0.664-1.13-0.837c-0.57-0.281-1.154-0.424-1.752-0.424
			c-0.677,0-1.317,0.182-1.919,0.544c-0.647,0.384-1.147,0.919-1.489,1.604c-0.289,0.566-0.433,1.174-0.433,1.818
			c0,1.182,0.438,2.148,1.311,2.9c0.763,0.662,1.609,0.992,2.539,0.992c0.529,0,1.027-0.102,1.489-0.305
			c0.461-0.201,0.923-0.518,1.384-0.951v1.326c-0.901,0.617-1.857,0.928-2.867,0.928c-0.799,0-1.56-0.19-2.279-0.572
			c-0.918-0.484-1.614-1.177-2.092-2.078c-0.37-0.708-0.561-1.458-0.561-2.254c0-0.813,0.2-1.586,0.596-2.322
			c0.45-0.84,1.085-1.497,1.904-1.967c0.767-0.44,1.597-0.662,2.487-0.662c0.527,0,1.009,0.074,1.44,0.222
			C157.892,80.988,158.349,81.229,158.827,81.565z"/>
		<path fill="#FFFFFF" d="M166.164,87.611h-4.065l-1.152,2.692h-1.155l4.385-9.974l4.275,9.974h-1.163L166.164,87.611z
			 M165.745,86.622l-1.591-3.816l-1.625,3.816H165.745z"/>
	</g>
</g>
</svg>
